<?xml version="1.0" encoding="UTF-8" standalone="no"?>
<!-- Created with Inkscape (http://www.inkscape.org/) -->

<svg
   xmlns:dc="http://purl.org/dc/elements/1.1/"
   xmlns:cc="http://creativecommons.org/ns#"
   xmlns:rdf="http://www.w3.org/1999/02/22-rdf-syntax-ns#"
   xmlns:svg="http://www.w3.org/2000/svg"
   xmlns="http://www.w3.org/2000/svg"
   xmlns:sodipodi="http://sodipodi.sourceforge.net/DTD/sodipodi-0.dtd"
   xmlns:inkscape="http://www.inkscape.org/namespaces/inkscape"
   width="161"
   height="59"
   viewBox="0 0 161 59.000001"
   id="svg4729"
   version="1.1"
   inkscape:version="0.91 r13725"
   sodipodi:docname="relialve-invert.svg">
  <defs
     id="defs4731">
    <clipPath
       clipPathUnits="userSpaceOnUse"
       id="clipPath50">
      <path
         d="m 0,841.89 1190.55,0 L 1190.55,0 0,0 0,841.89 Z"
         id="path52"
         inkscape:connector-curvature="0" />
    </clipPath>
  </defs>
  <sodipodi:namedview
     id="base"
     pagecolor="#ffffff"
     bordercolor="#666666"
     borderopacity="1.0"
     inkscape:pageopacity="0.0"
     inkscape:pageshadow="2"
     inkscape:zoom="7.4062246"
     inkscape:cx="80.287149"
     inkscape:cy="28.975741"
     inkscape:document-units="px"
     inkscape:current-layer="layer1"
     showgrid="false"
     units="px"
     inkscape:window-width="1366"
     inkscape:window-height="703"
     inkscape:window-x="0"
     inkscape:window-y="0"
     inkscape:window-maximized="1" />
  <metadata
     id="metadata4734">
    <rdf:RDF>
      <cc:Work
         rdf:about="">
        <dc:format>image/svg+xml</dc:format>
        <dc:type
           rdf:resource="http://purl.org/dc/dcmitype/StillImage" />
        <dc:title></dc:title>
      </cc:Work>
    </rdf:RDF>
  </metadata>
  <g
     inkscape:label="Layer 1"
     inkscape:groupmode="layer"
     id="layer1"
     transform="translate(0,-993.36216)">
    <g
       style="display:inline"
       id="g12"
       transform="matrix(0.18175957,0,0,-0.18175957,9.3536297,1041.1882)">
      <path
         d="M 0,0 1.203,185.238 -48.115,162.386 -48.716,25.864 0,0 Z"
         style="fill:#367ec1;fill-opacity:1;fill-rule:nonzero;stroke:none"
         id="path14"
         inkscape:connector-curvature="0" />
    </g>
    <g
       style="display:inline"
       id="g16"
       transform="matrix(0.18175957,0,0,-0.18175957,0.55612932,1013.0858)">
      <path
         d="m 0,0 0.889,52.28 105.249,54.732 0,-49.92 L 0,0 Z"
         style="fill:#254799;fill-opacity:1;fill-rule:nonzero;stroke:none"
         id="path18"
         inkscape:connector-curvature="0" />
    </g>
    <g
       style="display:inline"
       id="g20"
       transform="matrix(0.18175957,0,0,-0.18175957,19.847779,1002.7088)">
      <path
         d="M 0,0 0,49.92 151.56,-30.826 106.001,-53.83 0,0 Z"
         style="fill:#367ec1;fill-opacity:1;fill-rule:nonzero;stroke:none"
         id="path22"
         inkscape:connector-curvature="0" />
    </g>
    <g
       style="display:inline"
       id="g24"
       transform="matrix(0.18175957,0,0,-0.18175957,39.114539,1012.4929)">
      <path
         d="M 0,0 -0.902,-109.159 46.009,-129.007 45.558,23.004 0,0 Z"
         style="fill:#254799;fill-opacity:1;fill-rule:nonzero;stroke:none"
         id="path26"
         inkscape:connector-curvature="0" />
    </g>
    <g
       style="display:inline"
       id="g28"
       transform="matrix(0.18175957,0,0,-0.18175957,26.573039,1022.3775)">
      <path
         d="m 0,0 114.874,-61.346 0.587,-51.467 L -37.376,-32.524 0,0 Z"
         style="fill:#367ec1;fill-opacity:1;fill-rule:nonzero;stroke:none"
         id="path30"
         inkscape:connector-curvature="0" />
    </g>
    <g
       style="display:inline"
       id="g32"
       transform="matrix(0.18175957,0,0,-0.18175957,19.779519,1028.3095)">
      <path
         d="M 0,0 -0.062,79.394 62.248,45.707 0,0 Z"
         style="fill:#ee762f;fill-opacity:1;fill-rule:nonzero;stroke:none"
         id="path34"
         inkscape:connector-curvature="0" />
    </g>
    <g
       style="display:inline"
       id="g36"
       transform="matrix(0.18175957,0,0,-0.18175957,19.768159,1039.1789)">
      <path
         d="M 0,0 96.078,-48.602 54.279,-70.854 0,-42.813 0,0 Z"
         style="fill:#367ec1;fill-opacity:1;fill-rule:nonzero;stroke:none"
         id="path38"
         inkscape:connector-curvature="0" />
    </g>
    <g
       style="display:inline"
       id="g40"
       transform="matrix(0.18175957,0,0,-0.18175957,55.192379,1039.0616)">
      <path
         d="m 0,0 -9.161,0 0,50.03 31.858,0 0,-7.665 -22.697,0 0,-12.937 19.406,0 0,-7.665 L 0,21.763 0,0 Z"
         style="fill:#ffffff;fill-opacity:1;fill-rule:nonzero;stroke:none"
         id="path42"
         inkscape:connector-curvature="0" />
    </g>
    <path
       d="m 61.338919,1029.2205 1.61075,0 0,9.8412 -1.61075,0 0,-9.8412 z"
       style="display:inline;fill:#ffffff;fill-opacity:1;fill-rule:nonzero;stroke:none"
       id="path44"
       inkscape:connector-curvature="0" />
    <g
       transform="matrix(0.18175957,0,0,-0.18175957,-24.997241,1068.5854)"
       style="display:inline"
       id="g46">
      <g
         id="g48"
         clip-path="url(#clipPath50)">
        <g
           id="g54"
           transform="translate(513.793,161.499)">
          <path
             d="m 0,0 c -3.64,0 -6.656,0.617 -9.049,1.851 -2.393,1.234 -4.201,2.898 -5.422,4.992 -0.648,1.121 -1.128,2.355 -1.439,3.701 -0.312,1.347 -0.468,2.842 -0.468,4.487 l 0,22.137 8.862,0 0,-21.202 c 0,-1.222 0.087,-2.275 0.262,-3.159 0.174,-0.885 0.436,-1.652 0.785,-2.3 C -5.871,9.41 -5.023,8.594 -3.926,8.058 -2.83,7.521 -1.521,7.254 0,7.254 c 1.595,0 2.96,0.299 4.095,0.897 1.134,0.599 1.987,1.508 2.561,2.73 0.573,1.172 0.86,2.805 0.86,4.898 l 0,21.389 8.862,0 0,-22.137 c 0,-2.941 -0.511,-5.422 -1.533,-7.44 C 14.271,6.443 13.53,5.403 12.62,4.468 11.709,3.533 10.638,2.735 9.404,2.075 8.17,1.414 6.774,0.903 5.216,0.542 3.658,0.181 1.919,0 0,0"
             style="fill:#ffffff;fill-opacity:1;fill-rule:nonzero;stroke:none"
             id="path56"
             inkscape:connector-curvature="0" />
        </g>
        <path
           d="m 543.572,198.667 8.862,0 0,-36.233 -8.862,0 0,36.233 z m -0.224,17.91 9.311,0 0,-9.609 -9.311,0 0,9.609 z"
           style="fill:#ffffff;fill-opacity:1;fill-rule:nonzero;stroke:none"
           id="path58"
           inkscape:connector-curvature="0" />
        <g
           id="g60"
           transform="translate(581.8018,168.5654)">
          <path
             d="M 0,0 C 0.872,0 1.701,0.112 2.486,0.337 3.271,0.562 4.013,0.86 4.711,1.234 5.409,1.608 6.026,2.02 6.562,2.469 7.098,2.917 7.553,3.353 7.927,3.777 l 0,17.201 c -1.047,0.846 -2.219,1.551 -3.515,2.112 -1.296,0.561 -2.667,0.842 -4.113,0.842 -0.923,0 -1.888,-0.188 -2.898,-0.562 -1.009,-0.373 -1.932,-1.009 -2.767,-1.906 -0.835,-0.898 -1.533,-2.145 -2.094,-3.739 -0.561,-1.596 -0.841,-3.627 -0.841,-6.095 0,-3.641 0.704,-6.483 2.113,-8.526 C -4.78,1.06 -2.717,0.025 0,0 m -17.462,11.256 c 0,3.165 0.436,5.988 1.309,8.469 0.872,2.48 2.062,4.562 3.57,6.245 1.508,1.682 3.235,2.94 5.179,3.776 1.945,0.835 3.964,1.253 6.058,1.253 0.972,0 1.894,-0.088 2.767,-0.262 0.872,-0.175 1.695,-0.412 2.468,-0.711 0.772,-0.298 1.495,-0.635 2.169,-1.009 0.672,-0.374 1.296,-0.761 1.869,-1.16 l 0.075,0 c -0.025,0.499 -0.044,1.203 -0.056,2.114 -0.013,0.909 -0.019,1.9 -0.019,2.972 l 0,15.069 8.862,0 0,-43.375 c 0,-2.393 0.024,-4.45 0.074,-6.169 0.05,-1.721 0.1,-3.254 0.15,-4.6 l -8.002,0 -0.373,3.852 -0.15,0 C 7.964,-2.904 7.334,-3.515 6.6,-4.112 5.864,-4.711 5.054,-5.229 4.169,-5.664 3.284,-6.101 2.312,-6.443 1.252,-6.692 0.193,-6.941 -0.96,-7.066 -2.206,-7.066 c -1.97,0 -3.858,0.349 -5.665,1.046 -1.808,0.698 -3.428,1.777 -4.861,3.235 -1.434,1.458 -2.58,3.365 -3.44,5.721 -0.86,2.355 -1.29,5.128 -1.29,8.32"
             style="fill:#ffffff;fill-opacity:1;fill-rule:nonzero;stroke:none"
             id="path62"
             inkscape:connector-curvature="0" />
        </g>
        <g
           id="g64"
           transform="translate(642.6309,170.0986)">
          <path
             d="m 0,0 24.604,0 0,-7.665 -33.765,0 0,50.03 32.419,0 0,-7.665 -23.258,0 0,-12.937 19.968,0 0,-7.665 L 0,14.098 0,0 Z"
             style="fill:#ffffff;fill-opacity:1;fill-rule:nonzero;stroke:none"
             id="path66"
             inkscape:connector-curvature="0" />
        </g>
        <g
           id="g68"
           transform="translate(695.2568,168.5654)">
          <path
             d="m 0,0 c 0.897,0 1.745,0.112 2.543,0.337 0.798,0.225 1.533,0.511 2.206,0.86 0.673,0.349 1.277,0.735 1.813,1.159 0.537,0.423 0.992,0.847 1.366,1.272 l 0,16.078 c -0.923,1.122 -2.045,2.1 -3.366,2.936 -1.322,0.835 -2.767,1.264 -4.337,1.29 -0.898,0 -1.839,-0.182 -2.824,-0.542 -0.984,-0.363 -1.913,-1.004 -2.785,-1.926 -0.873,-0.923 -1.577,-2.2 -2.113,-3.833 -0.536,-1.633 -0.804,-3.621 -0.804,-5.964 0,-1.82 0.174,-3.446 0.524,-4.88 0.348,-1.433 0.872,-2.655 1.57,-3.664 C -5.509,2.113 -4.643,1.34 -3.608,0.805 -2.574,0.269 -1.371,0 0,0 m 8.638,26.025 0.374,4.077 7.777,0 0,-53.622 -8.861,0 0,15.07 c 0,1.072 0.011,2.063 0.037,2.972 0.024,0.911 0.05,1.615 0.075,2.113 l -0.075,0 C 7.416,-3.813 6.787,-4.257 6.076,-4.692 5.366,-5.129 4.587,-5.527 3.739,-5.889 2.892,-6.25 1.97,-6.537 0.973,-6.749 -0.024,-6.96 -1.084,-7.066 -2.206,-7.066 c -1.92,0 -3.795,0.342 -5.627,1.028 -1.832,0.685 -3.466,1.769 -4.898,3.253 -1.434,1.482 -2.581,3.396 -3.441,5.739 -0.86,2.343 -1.29,5.123 -1.29,8.339 0,3.19 0.442,6.032 1.327,8.525 0.885,2.493 2.063,4.562 3.534,6.207 1.471,1.646 3.16,2.885 5.067,3.721 1.907,0.835 3.87,1.253 5.889,1.253 2.168,0 4.119,-0.456 5.852,-1.365 1.732,-0.91 3.159,-2.113 4.281,-3.609 l 0.15,0 z"
             style="fill:#ffffff;fill-opacity:1;fill-rule:nonzero;stroke:none"
             id="path70"
             inkscape:connector-curvature="0" />
        </g>
        <g
           id="g72"
           transform="translate(741.6016,161.499)">
          <path
             d="m 0,0 c -3.641,0 -6.656,0.617 -9.049,1.851 -2.393,1.234 -4.201,2.898 -5.422,4.992 -0.649,1.121 -1.129,2.355 -1.44,3.701 -0.312,1.347 -0.467,2.842 -0.467,4.487 l 0,22.137 8.861,0 0,-21.202 c 0,-1.222 0.088,-2.275 0.262,-3.159 0.175,-0.885 0.437,-1.652 0.785,-2.3 C -5.871,9.41 -5.023,8.594 -3.927,8.058 -2.83,7.521 -1.521,7.254 0,7.254 c 1.595,0 2.959,0.299 4.094,0.897 1.135,0.599 1.988,1.508 2.561,2.73 0.574,1.172 0.861,2.805 0.861,4.898 l 0,21.389 8.861,0 0,-22.137 c 0,-2.941 -0.511,-5.422 -1.532,-7.44 C 14.271,6.443 13.529,5.403 12.619,4.468 11.709,3.533 10.638,2.735 9.403,2.075 8.17,1.414 6.773,0.903 5.216,0.542 3.657,0.181 1.919,0 0,0"
             style="fill:#ffffff;fill-opacity:1;fill-rule:nonzero;stroke:none"
             id="path74"
             inkscape:connector-curvature="0" />
        </g>
        <path
           d="m 771.38,198.667 8.862,0 0,-36.233 -8.862,0 0,36.233 z m -0.224,17.91 9.311,0 0,-9.609 -9.311,0 0,9.609 z"
           style="fill:#ffffff;fill-opacity:1;fill-rule:nonzero;stroke:none"
           id="path76"
           inkscape:connector-curvature="0" />
        <g
           id="g78"
           transform="translate(810.9932,192.46)">
          <path
             d="m 0,0 c -1.546,-0.025 -3.017,-0.406 -4.412,-1.141 -1.397,-0.736 -2.63,-1.726 -3.702,-2.972 l 0,-16.154 c 0.374,-0.424 0.823,-0.848 1.346,-1.271 0.524,-0.425 1.109,-0.811 1.757,-1.159 0.649,-0.35 1.365,-0.636 2.151,-0.861 0.785,-0.224 1.601,-0.337 2.449,-0.337 1.37,0 2.592,0.293 3.664,0.879 1.072,0.586 1.964,1.415 2.674,2.488 0.711,1.071 1.253,2.348 1.627,3.832 0.374,1.483 0.56,3.134 0.56,4.955 0,1.944 -0.193,3.651 -0.58,5.122 C 7.147,-5.148 6.6,-3.927 5.89,-2.954 5.179,-1.982 4.325,-1.247 3.328,-0.748 2.331,-0.25 1.222,0 0,0 m 1.159,-30.961 c -1.944,0 -3.708,0.356 -5.291,1.065 -1.583,0.711 -2.897,1.589 -3.944,2.636 l -0.151,0 c 0.026,-0.498 0.05,-1.202 0.076,-2.112 0.024,-0.909 0.037,-1.9 0.037,-2.973 l 0,-15.069 -8.862,0 0,53.621 7.778,0 0.374,-4.076 0.149,0 c 1.097,1.445 2.505,2.636 4.226,3.571 1.72,0.935 3.714,1.402 5.982,1.402 1.969,0 3.907,-0.368 5.815,-1.103 1.907,-0.735 3.595,-1.863 5.066,-3.384 1.471,-1.521 2.649,-3.44 3.534,-5.759 0.884,-2.318 1.327,-5.073 1.327,-8.263 0,-3.366 -0.473,-6.276 -1.421,-8.731 -0.948,-2.456 -2.194,-4.487 -3.739,-6.095 -1.546,-1.608 -3.26,-2.798 -5.141,-3.571 -1.883,-0.772 -3.821,-1.159 -5.815,-1.159"
             style="fill:#ffffff;fill-opacity:1;fill-rule:nonzero;stroke:none"
             id="path80"
             inkscape:connector-curvature="0" />
        </g>
        <g
           id="g82"
           transform="translate(886.6152,184.4951)">
          <path
             d="m 0,0 c 0,0.772 -0.025,1.495 -0.075,2.169 -0.05,0.673 -0.137,1.258 -0.262,1.757 -0.274,1.096 -0.809,1.982 -1.607,2.655 -0.798,0.673 -1.92,1.022 -3.366,1.047 -0.773,0 -1.57,-0.112 -2.393,-0.337 -0.822,-0.224 -1.639,-0.542 -2.449,-0.953 -0.81,-0.411 -1.583,-0.91 -2.319,-1.496 -0.735,-0.586 -1.401,-1.24 -2,-1.963 l 0,-24.941 -8.862,0 0,22.062 c 0,0.772 -0.024,1.495 -0.074,2.169 -0.051,0.673 -0.138,1.258 -0.262,1.757 -0.274,1.096 -0.804,1.982 -1.59,2.655 -0.785,0.673 -1.913,1.022 -3.384,1.047 -0.772,0 -1.57,-0.112 -2.392,-0.337 -0.823,-0.224 -1.64,-0.542 -2.449,-0.953 -0.811,-0.411 -1.584,-0.91 -2.319,-1.496 -0.735,-0.586 -1.402,-1.24 -2.001,-1.963 l 0,-24.941 -8.861,0 0,36.234 7.328,0 0.823,-5.048 0.15,0 c 0.523,0.747 1.183,1.482 1.981,2.206 0.798,0.723 1.701,1.358 2.711,1.906 1.01,0.549 2.119,0.992 3.328,1.328 1.209,0.336 2.487,0.505 3.833,0.505 2.393,0 4.543,-0.53 6.45,-1.59 1.907,-1.059 3.359,-2.71 4.356,-4.954 l 0.15,0 c 0.698,0.972 1.477,1.857 2.337,2.655 0.86,0.798 1.814,1.483 2.861,2.056 1.046,0.574 2.174,1.023 3.383,1.347 1.209,0.323 2.499,0.486 3.87,0.486 2.593,-0.025 4.768,-0.567 6.526,-1.627 C 5.179,12.383 6.531,10.931 7.479,9.086 7.728,8.612 7.939,8.096 8.114,7.534 8.288,6.974 8.432,6.344 8.544,5.646 8.656,4.948 8.737,4.175 8.787,3.328 8.837,2.48 8.862,1.508 8.862,0.411 l 0,-22.473 -8.862,0 L 0,0 Z"
             style="fill:#ffffff;fill-opacity:1;fill-rule:nonzero;stroke:none"
             id="path84"
             inkscape:connector-curvature="0" />
        </g>
        <g
           id="g86"
           transform="translate(924.1348,192.6465)">
          <path
             d="M 0,0 C -1.122,0 -2.119,-0.206 -2.992,-0.617 -3.864,-1.028 -4.618,-1.589 -5.254,-2.3 -5.89,-3.01 -6.395,-3.839 -6.769,-4.786 -7.143,-5.733 -7.392,-6.743 -7.517,-7.815 l 14.247,0 c 0,1.072 -0.143,2.082 -0.43,3.029 C 6.014,-3.839 5.59,-3.01 5.029,-2.3 4.468,-1.589 3.77,-1.028 2.935,-0.617 2.1,-0.206 1.121,0 0,0 m 3.552,-24.006 c 1.719,0 3.514,0.174 5.385,0.524 1.869,0.348 3.763,0.847 5.683,1.496 l 0,-7.068 c -1.147,-0.499 -2.904,-0.972 -5.272,-1.421 -2.369,-0.449 -4.824,-0.672 -7.367,-0.672 -2.567,0 -5.004,0.33 -7.31,0.99 -2.306,0.66 -4.318,1.726 -6.038,3.197 -1.721,1.471 -3.085,3.378 -4.095,5.721 -1.01,2.343 -1.515,5.185 -1.515,8.526 0,3.29 0.474,6.169 1.421,8.637 0.948,2.469 2.219,4.512 3.815,6.133 1.595,1.62 3.421,2.835 5.477,3.645 2.057,0.81 4.182,1.216 6.376,1.216 2.293,0 4.406,-0.35 6.338,-1.048 1.931,-0.697 3.602,-1.794 5.01,-3.29 1.408,-1.496 2.506,-3.422 3.291,-5.777 0.785,-2.356 1.178,-5.142 1.178,-8.357 -0.026,-1.247 -0.063,-2.306 -0.113,-3.178 l -23.744,0 c 0.125,-1.671 0.499,-3.098 1.122,-4.282 0.623,-1.184 1.44,-2.144 2.45,-2.88 1.009,-0.735 2.187,-1.27 3.533,-1.607 1.346,-0.337 2.804,-0.505 4.375,-0.505"
             style="fill:#ffffff;fill-opacity:1;fill-rule:nonzero;stroke:none"
             id="path88"
             inkscape:connector-curvature="0" />
        </g>
        <g
           id="g90"
           transform="translate(960.2705,193.6191)">
          <path
             d="m 0,0 0.149,0 c 0.524,0.747 1.184,1.482 1.982,2.206 0.798,0.723 1.707,1.358 2.729,1.906 1.023,0.549 2.151,0.992 3.385,1.328 1.234,0.336 2.548,0.505 3.944,0.505 1.322,0 2.599,-0.15 3.833,-0.449 1.234,-0.299 2.362,-0.767 3.384,-1.402 1.022,-0.636 1.926,-1.458 2.711,-2.468 0.785,-1.01 1.403,-2.213 1.851,-3.608 0.249,-0.773 0.418,-1.615 0.505,-2.524 0.087,-0.91 0.131,-1.964 0.131,-3.16 l 0,-23.52 -8.862,0 0,22.136 c 0,0.973 -0.038,1.808 -0.112,2.506 -0.075,0.697 -0.212,1.309 -0.411,1.832 -0.449,1.147 -1.129,1.969 -2.038,2.468 -0.91,0.498 -2.014,0.748 -3.31,0.748 -1.72,0 -3.371,-0.405 -4.954,-1.215 C 3.334,-3.521 1.932,-4.699 0.71,-6.245 l 0,-24.941 -8.861,0 0,36.234 7.328,0 L 0,0 Z"
             style="fill:#ffffff;fill-opacity:1;fill-rule:nonzero;stroke:none"
             id="path92"
             inkscape:connector-curvature="0" />
        </g>
        <g
           id="g94"
           transform="translate(1020.5615,162.4707)">
          <path
             d="m 0,0 c -0.997,-0.299 -2.188,-0.535 -3.571,-0.71 -1.383,-0.174 -2.673,-0.262 -3.87,-0.262 -3.041,0 -5.528,0.493 -7.459,1.477 -1.933,0.984 -3.297,2.399 -4.095,4.244 -0.574,1.321 -0.86,3.116 -0.86,5.385 l 0,18.77 -6.768,0 0,7.292 6.768,0 0,10.133 8.862,0 0,-10.133 10.47,0 0,-7.292 -10.47,0 0,-17.611 c 0,-1.397 0.212,-2.431 0.636,-3.104 0.748,-1.147 2.23,-1.72 4.449,-1.72 1.022,0 2.038,0.081 3.048,0.243 C -1.851,6.874 -0.897,7.08 0,7.329 L 0,0 Z"
             style="fill:#ffffff;fill-opacity:1;fill-rule:nonzero;stroke:none"
             id="path96"
             inkscape:connector-curvature="0" />
        </g>
        <g
           id="g98"
           transform="translate(451.7148,304.5234)">
          <path
             d="m 0,0 0,-21.338 7.796,0 c 4.808,0 8.412,0.869 10.816,2.609 2.404,1.738 3.605,4.347 3.605,7.826 0,3.752 -1.339,6.507 -4.015,8.265 C 15.524,-0.879 11.293,0 5.51,0 L 0,0 Z m -21.749,14.655 33.122,0 c 11.02,0 19.198,-1.788 24.532,-5.363 5.335,-3.576 8.002,-9.019 8.002,-16.326 0,-5.394 -1.407,-9.829 -4.22,-13.308 -2.814,-3.478 -6.879,-5.804 -12.194,-6.975 4.377,-1.603 7.894,-6.156 10.552,-13.66 l 0,-0.058 9.966,-27.611 -23.156,0 -7.327,22.804 c -1.173,3.673 -2.776,6.214 -4.807,7.621 -2.033,1.407 -5.199,2.111 -9.497,2.111 l -3.224,0 0,-32.536 -21.749,0 0,83.301 z"
             style="fill:#ffffff;fill-opacity:1;fill-rule:nonzero;stroke:#ffffff"
             id="path100"
             inkscape:connector-curvature="0" />
        </g>
        <g
           id="g102"
           transform="translate(514.8735,319.1787)">
          <path
             d="m 0,0 57.859,0 0,-15.593 -35.642,0 0,-16.824 33.649,0 0,-15.828 -33.649,0 0,-18.993 36.991,0 0,-16.063 L 0,-83.301 0,0 Z"
             style="fill:#ffffff;fill-opacity:1;fill-rule:nonzero;stroke:none"
             id="path104"
             inkscape:connector-curvature="0" />
        </g>
        <g
           id="g106"
           transform="translate(594.2114,319.1787)">
          <path
             d="m 0,0 22.217,0 0,-66.828 33.473,0 0,-16.473 -55.69,0 L 0,0 Z"
             style="fill:#ffffff;fill-opacity:1;fill-rule:nonzero;stroke:none"
             id="path108"
             inkscape:connector-curvature="0" />
        </g>
        <path
           d="m 666.34,319.179 22.218,0 0,-83.301 -22.218,0 0,83.301 z"
           style="fill:#ffffff;fill-opacity:1;fill-rule:nonzero;stroke:none"
           id="path110"
           inkscape:connector-curvature="0" />
        <g
           id="g112"
           transform="translate(745.0908,300.5957)">
          <path
             d="m 0,0 -10.786,-31.245 21.221,0 L 0,0 Z m -12.955,18.583 26.79,0 31.538,-83.301 -23.741,0 -5.921,17.645 -32.065,0 -6.214,-17.645 -21.984,0 31.597,83.301 z"
             style="fill:#ffffff;fill-opacity:1;fill-rule:nonzero;stroke:none"
             id="path114"
             inkscape:connector-curvature="0" />
        </g>
        <g
           id="g116"
           transform="translate(823.1396,270.8164)">
          <path
             d="m 0,0 0,-19.58 8.735,0 c 4.533,0 7.972,0.851 10.318,2.551 2.344,1.699 3.516,4.171 3.516,7.415 0,3.204 -1.075,5.607 -3.223,7.211 C 17.195,-0.802 13.99,0 9.731,0 L 0,0 Z m 0,33.355 0,-18.583 6.742,0 c 4.69,0 8.196,0.791 10.523,2.374 2.324,1.583 3.487,3.996 3.487,7.241 0,2.93 -1.094,5.158 -3.282,6.682 -2.19,1.525 -5.413,2.286 -9.673,2.286 l -7.797,0 z m -21.748,15.007 34.117,0 c 10.083,0 17.665,-1.807 22.745,-5.422 5.08,-3.616 7.621,-8.999 7.621,-16.15 0,-4.808 -1.329,-8.804 -3.986,-11.988 C 36.091,11.616 32.222,9.32 27.142,7.914 32.848,6.858 37.234,4.621 40.303,1.201 c 3.067,-3.42 4.601,-7.787 4.601,-13.101 0,-7.817 -2.795,-13.611 -8.383,-17.381 -5.588,-3.773 -14.207,-5.657 -25.852,-5.657 l -32.417,0 0,83.3 z"
             style="fill:#ffffff;fill-opacity:1;fill-rule:nonzero;stroke:none"
             id="path118"
             inkscape:connector-curvature="0" />
        </g>
        <g
           id="g120"
           transform="translate(887.1191,319.1787)">
          <path
             d="m 0,0 22.218,0 0,-66.828 33.472,0 0,-16.473 -55.69,0 L 0,0 Z"
             style="fill:#ffffff;fill-opacity:1;fill-rule:nonzero;stroke:none"
             id="path122"
             inkscape:connector-curvature="0" />
        </g>
        <g
           id="g124"
           transform="translate(959.2471,319.1787)">
          <path
             d="m 0,0 57.859,0 0,-15.593 -35.641,0 0,-16.824 33.648,0 0,-15.828 -33.648,0 0,-18.993 36.989,0 0,-16.063 L 0,-83.301 0,0 Z"
             style="fill:#ffffff;fill-opacity:1;fill-rule:nonzero;stroke:none"
             id="path126"
             inkscape:connector-curvature="0" />
        </g>
        <g
           id="g128"
           transform="translate(183.5776,537.7344)" />
        <g
           id="g132"
           transform="translate(135.1758,692.3472)" />
        <g
           id="g136"
           transform="translate(241.314,749.4395)" />
        <g
           id="g140"
           transform="translate(347.3159,695.6084)" />
        <g
           id="g144"
           transform="translate(278.3149,641.2271)" />
        <g
           id="g148"
           transform="translate(240.939,608.5879)" />
        <g
           id="g152"
           transform="translate(240.8765,548.7896)" />
        <g
           id="g156"
           transform="translate(435.772,549.4341)" />
        <g
           id="g162"
           transform="translate(508.3799,548.4995)" />
        <g
           id="g168"
           transform="translate(576.3887,555.5664)" />
        <g
           id="g172"
           transform="translate(637.2187,557.0996)" />
        <g
           id="g176"
           transform="translate(689.8437,555.5664)" />
        <g
           id="g180"
           transform="translate(736.1885,548.4995)" />
        <g
           id="g186"
           transform="translate(805.5811,579.46)" />
        <g
           id="g190"
           transform="translate(881.2021,571.4956)" />
        <g
           id="g194"
           transform="translate(918.7227,579.647)" />
        <g
           id="g198"
           transform="translate(954.8584,580.6191)" />
        <g
           id="g202"
           transform="translate(1015.1484,549.4717)" />
        <g
           id="g206"
           transform="translate(446.3022,691.5229)" />
        <g
           id="g210"
           transform="translate(509.4609,706.1782)" />
        <g
           id="g214"
           transform="translate(588.7988,706.1782)" />
        <g
           id="g220"
           transform="translate(739.6777,687.5952)" />
        <g
           id="g224"
           transform="translate(817.7266,657.8159)" />
        <g
           id="g228"
           transform="translate(881.7061,706.1782)" />
        <g
           id="g232"
           transform="translate(953.834,706.1782)" />
      </g>
    </g>
  </g>
</svg>
